<svg fill="#1EA973" viewBox="0 0 24.426315 24.011841" xmlns="http://www.w3.org/2000/svg"><path d="M12.351955 16.864865c-2.8658829 0-5.1891891-2.177979-5.1891891-4.864865 0-2.6868855 2.3233062-4.8648649 5.1891891-4.8648649zM.02763081 12c0-6.6168889 5.45449459-12 12.15912819-12 3.247613 0 6.300679 1.2482222 8.597629 3.5146667l-2.516264 2.4835555c-1.624595-1.6031111-3.784416-2.486-6.081365-2.486-4.7425107 0-8.6003317 3.8075556-8.6003317 8.4877778 0 4.680222 3.857821 8.487778 8.6003317 8.487778 2.297174 0 4.45677-.882889 6.081365-2.486l2.516264 2.483555C18.487664 22.751778 15.434597 24 12.186759 24 5.4821254 24 .02763081 18.616667.02763081 12Z" fill-rule="evenodd"/></svg>
