<svg width="248" height="136" viewBox="0 0 248 136" fill="none" xmlns="http://www.w3.org/2000/svg">
  <g clip-path="url(#clip0)">
    <path opacity="0.526" d="M248 122.262C248 122.262 197.685 146.829 110.519 122.262C27.856 108.511 36.4224 135.479 0 127.906C0.742024 127.326 0 0.999023 0 0.999023H248V122.262Z" fill="url(#paint0_linear)"/>
    <path opacity="0.737" d="M0.30127 128.213C0.30127 128.213 29.5248 139.027 116.792 121.514C179.523 107.894 211.623 142.304 248.005 134.959C247.264 134.397 248.005 0 248.005 0H0.30127V128.213Z" fill="url(#paint1_linear)"/>
    <g clip-path="url(#clip1)">
      <path d="M54.7344 54.822C52.2909 54.822 49.9475 53.8408 48.2197 52.0943C46.4919 50.3477 45.5212 47.9789 45.5212 45.509C45.5212 43.039 46.4919 40.6702 48.2197 38.9237C49.9475 37.1772 52.2909 36.196 54.7344 36.196" fill="white"/>
      <path d="M54.2602 68.0097C50.598 68.0115 46.9919 67.0999 43.7616 65.356C40.5312 63.612 37.7763 61.0895 35.7411 58.0119C33.7058 54.9344 32.453 51.3968 32.0937 47.7128C31.7344 44.0287 32.2798 40.312 33.6813 36.8919C35.0829 33.4719 37.2975 30.4541 40.1288 28.1061C42.96 25.7581 46.3206 24.1524 49.9126 23.4312C53.5047 22.71 57.2172 22.8957 60.7213 23.9717C64.2254 25.0478 67.4127 26.981 70.0009 29.6L65.392 34.2524C63.1902 32.0265 60.3849 30.5105 57.3308 29.8962C54.2767 29.282 51.111 29.597 48.234 30.8014C45.3571 32.0059 42.898 34.0457 41.168 36.6629C39.4379 39.2801 38.5144 42.3571 38.5144 45.5049C38.5144 48.6526 39.4379 51.7296 41.168 54.3468C42.898 56.964 45.3571 59.0038 48.234 60.2083C51.111 61.4128 54.2767 61.7278 57.3308 61.1135C60.3849 60.4992 63.1902 58.9833 65.392 56.7573L69.9945 61.4098C67.9339 63.507 65.4822 65.1702 62.7814 66.3031C60.0806 67.436 57.1843 68.0161 54.2602 68.0097Z" fill="white"/>
    </g>
    <path d="M33.0254 96.5332C32.8066 96.0098 32.6973 95.4609 32.6973 94.8867C32.6973 94.3125 32.8066 93.7637 33.0254 93.2402C33.2441 92.7168 33.5391 92.2656 33.9102 91.8867C34.2852 91.5039 34.7305 91.2012 35.2461 90.9785C35.7656 90.752 36.3125 90.6387 36.8867 90.6387C37.6523 90.6387 38.3574 90.8301 39.002 91.2129C39.6465 91.5918 40.1543 92.1074 40.5254 92.7598C40.8965 93.4082 41.082 94.1172 41.082 94.8867C41.082 95.4609 40.9727 96.0098 40.7539 96.5332C40.5352 97.0527 40.2383 97.502 39.8633 97.8809C39.4922 98.2598 39.0469 98.5605 38.5273 98.7832C38.0078 99.0059 37.4609 99.1172 36.8867 99.1172C36.3125 99.1172 35.7656 99.0059 35.2461 98.7832C34.7305 98.5605 34.2852 98.2598 33.9102 97.8809C33.5391 97.502 33.2441 97.0527 33.0254 96.5332ZM33.3652 94.8867C33.3652 95.5352 33.5195 96.1309 33.8281 96.6738C34.1406 97.2168 34.5664 97.6465 35.1055 97.9629C35.6484 98.2793 36.2422 98.4375 36.8867 98.4375C37.5312 98.4375 38.123 98.2793 38.6621 97.9629C39.2012 97.6465 39.625 97.2168 39.9336 96.6738C40.2461 96.1309 40.4023 95.5352 40.4023 94.8867C40.4023 94.2383 40.2461 93.6406 39.9336 93.0938C39.625 92.5469 39.2012 92.1152 38.6621 91.7988C38.123 91.4785 37.5312 91.3184 36.8867 91.3184C36.4023 91.3184 35.9414 91.4121 35.5039 91.5996C35.0703 91.7871 34.6973 92.041 34.3848 92.3613C34.0723 92.6816 33.8242 93.0625 33.6406 93.5039C33.457 93.9414 33.3652 94.4023 33.3652 94.8867ZM34.7949 94.9453C34.7949 94.3438 35 93.8359 35.4102 93.4219C35.8242 93.0039 36.332 92.7949 36.9336 92.7949C37.5352 92.7949 38.0586 93.0352 38.5039 93.5156L38.0586 93.9609C37.7148 93.6172 37.3398 93.4453 36.9336 93.4453C36.5156 93.4453 36.1621 93.5918 35.873 93.8848C35.5879 94.1777 35.4453 94.5312 35.4453 94.9453C35.4453 95.3594 35.5879 95.7129 35.873 96.0059C36.1621 96.2988 36.5156 96.4453 36.9336 96.4453C37.3398 96.4453 37.7227 96.2656 38.082 95.9062L38.5156 96.3691C38.2969 96.5996 38.0488 96.7773 37.7715 96.9023C37.498 97.0273 37.2188 97.0898 36.9336 97.0898C36.3359 97.0898 35.8301 96.8828 35.416 96.4688C35.002 96.0508 34.7949 95.543 34.7949 94.9453ZM45.623 94.8867C45.623 94.1094 45.793 93.3984 46.1328 92.7539C46.4727 92.1055 46.9492 91.5918 47.5625 91.2129C48.1797 90.8301 48.8691 90.6387 49.6309 90.6387C50.2051 90.6387 50.7422 90.7461 51.2422 90.9609C51.7461 91.1758 52.1875 91.4785 52.5664 91.8691L52.0156 92.4258C51.3516 91.7617 50.5566 91.4297 49.6309 91.4297C49.0098 91.4297 48.4512 91.5859 47.9551 91.8984C47.4629 92.207 47.082 92.625 46.8125 93.1523C46.5469 93.6758 46.4141 94.2539 46.4141 94.8867C46.4141 95.5195 46.5469 96.0977 46.8125 96.6211C47.082 97.1445 47.4629 97.5605 47.9551 97.8691C48.4512 98.1738 49.0098 98.3262 49.6309 98.3262C50.0957 98.3262 50.5332 98.2383 50.9434 98.0625C51.3535 97.8828 51.7148 97.6348 52.0273 97.3184L52.5781 97.8867C52.1992 98.2773 51.7559 98.5801 51.248 98.7949C50.7441 99.0098 50.2051 99.1172 49.6309 99.1172C48.8691 99.1172 48.1797 98.9277 47.5625 98.5488C46.9492 98.1699 46.4727 97.6582 46.1328 97.0137C45.793 96.3691 45.623 95.6602 45.623 94.8867ZM53.9258 97.7227C53.6602 97.2695 53.5273 96.7559 53.5273 96.1816C53.5273 95.6074 53.6602 95.0977 53.9258 94.6523C54.1953 94.2031 54.5508 93.8613 54.9922 93.627C55.4336 93.3926 55.9219 93.2754 56.457 93.2754C56.9922 93.2754 57.4805 93.3926 57.9219 93.627C58.3633 93.8613 58.7168 94.2031 58.9824 94.6523C59.252 95.0977 59.3867 95.6074 59.3867 96.1816C59.3867 96.7559 59.252 97.2695 58.9824 97.7227C58.7168 98.1758 58.3613 98.5215 57.916 98.7598C57.4746 98.998 56.9883 99.1172 56.457 99.1172C55.9258 99.1172 55.4375 98.998 54.9922 98.7598C54.5508 98.5215 54.1953 98.1758 53.9258 97.7227ZM54.9395 94.6523C54.5293 95.0391 54.3242 95.5488 54.3242 96.1816C54.3242 96.8145 54.5293 97.3301 54.9395 97.7285C55.3535 98.127 55.8594 98.3262 56.457 98.3262C57.0547 98.3262 57.5605 98.127 57.9746 97.7285C58.3887 97.3301 58.5957 96.8145 58.5957 96.1816C58.5957 95.5488 58.3887 95.0391 57.9746 94.6523C57.5645 94.2617 57.0586 94.0664 56.457 94.0664C55.8555 94.0664 55.3496 94.2617 54.9395 94.6523ZM60.9453 99V93.3984H61.748V94.6699C61.8848 94.1934 62.084 93.8418 62.3457 93.6152C62.6113 93.3887 62.9492 93.2754 63.3594 93.2754C63.543 93.2754 63.7246 93.2988 63.9043 93.3457C64.0879 93.3926 64.209 93.4414 64.2676 93.4922L64.1738 94.2715C63.9199 94.1426 63.6484 94.0781 63.3594 94.0781C62.9961 94.0781 62.6895 94.2148 62.4395 94.4883C62.1895 94.7578 62.0117 95.0996 61.9062 95.5137C61.8008 95.9277 61.748 96.3945 61.748 96.9141V99H60.9453ZM64.9062 96.1816C64.9062 95.3145 65.1797 94.6133 65.7266 94.0781C66.2773 93.543 66.9609 93.2754 67.7773 93.2754C68.2109 93.2754 68.6191 93.3652 69.002 93.5449C69.3887 93.7207 69.6836 93.9785 69.8867 94.3184V90.3574H70.6895V99H69.8867V98.0391C69.6836 98.3789 69.3867 98.6445 68.9961 98.8359C68.6094 99.0234 68.2031 99.1172 67.7773 99.1172C66.9648 99.1172 66.2832 98.8457 65.7324 98.3027C65.1816 97.7598 64.9062 97.0527 64.9062 96.1816ZM65.7148 96.1816C65.7148 96.7988 65.9121 97.3086 66.3066 97.7109C66.7012 98.1133 67.1914 98.3145 67.7773 98.3145C68.375 98.3145 68.875 98.125 69.2773 97.7461C69.6836 97.3672 69.8867 96.8457 69.8867 96.1816C69.8867 95.8496 69.8242 95.5469 69.6992 95.2734C69.5742 95 69.4102 94.7793 69.207 94.6113C69.0039 94.4395 68.7793 94.3086 68.5332 94.2188C68.2871 94.125 68.0352 94.0781 67.7773 94.0781C67.1836 94.0781 66.6914 94.2715 66.3008 94.6582C65.9102 95.0449 65.7148 95.5527 65.7148 96.1816ZM76.0566 99V90.7324H80.6973V91.5234H76.8477V94.5469H79.9062V95.3379H76.8477V99H76.0566ZM82.0391 91.7227C81.918 91.6094 81.8574 91.4707 81.8574 91.3066C81.8574 91.1426 81.918 91.0059 82.0391 90.8965C82.1602 90.7871 82.3047 90.7324 82.4727 90.7324C82.6406 90.7324 82.7832 90.7871 82.9004 90.8965C83.0215 91.0059 83.082 91.1426 83.082 91.3066C83.082 91.4707 83.0215 91.6094 82.9004 91.7227C82.7832 91.832 82.6406 91.8867 82.4727 91.8867C82.3047 91.8867 82.1602 91.832 82.0391 91.7227ZM82.0625 99V93.3984H82.8535V99H82.0625ZM84.4062 96.1816C84.4062 95.3105 84.6758 94.6094 85.2148 94.0781C85.7539 93.543 86.4297 93.2754 87.2422 93.2754C88.0508 93.2754 88.7109 93.541 89.2227 94.0723C89.7344 94.5996 89.9902 95.3027 89.9902 96.1816C89.9902 96.3574 89.9863 96.4805 89.9785 96.5508H85.2266C85.3008 97.0898 85.5234 97.5215 85.8945 97.8457C86.2656 98.166 86.7148 98.3262 87.2422 98.3262C87.6211 98.3262 87.9648 98.2402 88.2734 98.0684C88.582 97.8965 88.8223 97.6582 88.9941 97.3535C89.084 97.377 89.2227 97.4102 89.4102 97.4531C89.6016 97.4922 89.7305 97.5195 89.7969 97.5352C89.5703 98.0312 89.2285 98.4199 88.7715 98.7012C88.3184 98.9785 87.8086 99.1172 87.2422 99.1172C86.7109 99.1172 86.2305 98.998 85.8008 98.7598C85.375 98.5176 85.0352 98.1719 84.7812 97.7227C84.5312 97.2734 84.4062 96.7598 84.4062 96.1816ZM85.2266 95.8066H89.1699C89.0918 95.2715 88.8789 94.8477 88.5312 94.5352C88.1875 94.2227 87.7578 94.0664 87.2422 94.0664C86.7148 94.0664 86.2656 94.2246 85.8945 94.541C85.5273 94.8574 85.3047 95.2793 85.2266 95.8066ZM91.4727 99V90.3574H92.2637V99H91.4727ZM93.8164 96.1816C93.8164 95.3145 94.0898 94.6133 94.6367 94.0781C95.1875 93.543 95.8711 93.2754 96.6875 93.2754C97.1211 93.2754 97.5293 93.3652 97.9121 93.5449C98.2988 93.7207 98.5938 93.9785 98.7969 94.3184V90.3574H99.5996V99H98.7969V98.0391C98.5938 98.3789 98.2969 98.6445 97.9062 98.8359C97.5195 99.0234 97.1133 99.1172 96.6875 99.1172C95.875 99.1172 95.1934 98.8457 94.6426 98.3027C94.0918 97.7598 93.8164 97.0527 93.8164 96.1816ZM94.625 96.1816C94.625 96.7988 94.8223 97.3086 95.2168 97.7109C95.6113 98.1133 96.1016 98.3145 96.6875 98.3145C97.2852 98.3145 97.7852 98.125 98.1875 97.7461C98.5938 97.3672 98.7969 96.8457 98.7969 96.1816C98.7969 95.8496 98.7344 95.5469 98.6094 95.2734C98.4844 95 98.3203 94.7793 98.1172 94.6113C97.9141 94.4395 97.6895 94.3086 97.4434 94.2188C97.1973 94.125 96.9453 94.0781 96.6875 94.0781C96.0938 94.0781 95.6016 94.2715 95.2109 94.6582C94.8203 95.0449 94.625 95.5527 94.625 96.1816ZM104.416 92.8066C104.51 92.2324 104.779 91.7754 105.225 91.4355C105.674 91.0957 106.207 90.9258 106.824 90.9258C107.512 90.9258 108.092 91.1406 108.564 91.5703C109.037 91.9961 109.273 92.541 109.273 93.2051C109.273 93.9082 108.986 94.5879 108.412 95.2441L105.904 98.209H109.285V99H104.498V98.7246L107.832 94.6816C108.266 94.1699 108.482 93.6777 108.482 93.2051C108.482 92.7598 108.322 92.4004 108.002 92.127C107.686 91.8535 107.293 91.7168 106.824 91.7168C106.391 91.7168 106.016 91.834 105.699 92.0684C105.383 92.2988 105.199 92.6094 105.148 93L104.416 92.8066ZM110.885 95.0273C110.885 94.5469 110.91 94.1133 110.961 93.7266C111.012 93.3359 111.104 92.9629 111.236 92.6074C111.369 92.252 111.539 91.9551 111.746 91.7168C111.957 91.4746 112.23 91.2832 112.566 91.1426C112.902 90.998 113.291 90.9258 113.732 90.9258C114.174 90.9258 114.561 90.998 114.893 91.1426C115.229 91.2832 115.5 91.4746 115.707 91.7168C115.918 91.9551 116.088 92.2539 116.217 92.6133C116.346 92.9688 116.436 93.3398 116.486 93.7266C116.537 94.1133 116.562 94.5469 116.562 95.0273C116.562 95.5039 116.537 95.9355 116.486 96.3223C116.436 96.709 116.346 97.082 116.217 97.4414C116.088 97.7969 115.918 98.0938 115.707 98.332C115.5 98.5703 115.229 98.7617 114.893 98.9062C114.561 99.0469 114.174 99.1172 113.732 99.1172C113.291 99.1172 112.902 99.0469 112.566 98.9062C112.23 98.7617 111.957 98.5703 111.746 98.332C111.539 98.0898 111.369 97.791 111.236 97.4355C111.104 97.0801 111.012 96.709 110.961 96.3223C110.91 95.9355 110.885 95.5039 110.885 95.0273ZM111.729 93.9785C111.693 94.291 111.676 94.6406 111.676 95.0273C111.676 95.4141 111.693 95.7637 111.729 96.0762C111.768 96.3848 111.834 96.6836 111.928 96.9727C112.021 97.2617 112.145 97.502 112.297 97.6934C112.449 97.8848 112.646 98.0391 112.889 98.1562C113.131 98.2695 113.412 98.3262 113.732 98.3262C114.053 98.3262 114.334 98.2695 114.576 98.1562C114.818 98.0391 115.014 97.8848 115.162 97.6934C115.311 97.502 115.432 97.2617 115.525 96.9727C115.619 96.6836 115.684 96.3848 115.719 96.0762C115.754 95.7637 115.771 95.4141 115.771 95.0273C115.771 94.6367 115.754 94.2871 115.719 93.9785C115.684 93.666 115.619 93.3652 115.525 93.0762C115.432 92.7871 115.311 92.5469 115.162 92.3555C115.014 92.1602 114.818 92.0059 114.576 91.8926C114.334 91.7754 114.053 91.7168 113.732 91.7168C113.412 91.7168 113.131 91.7754 112.889 91.8926C112.646 92.0059 112.449 92.1602 112.297 92.3555C112.145 92.5469 112.021 92.7871 111.928 93.0762C111.834 93.3613 111.768 93.6621 111.729 93.9785ZM118.045 92.8066C118.139 92.2324 118.408 91.7754 118.854 91.4355C119.303 91.0957 119.836 90.9258 120.453 90.9258C121.141 90.9258 121.721 91.1406 122.193 91.5703C122.666 91.9961 122.902 92.541 122.902 93.2051C122.902 93.9082 122.615 94.5879 122.041 95.2441L119.533 98.209H122.914V99H118.127V98.7246L121.461 94.6816C121.895 94.1699 122.111 93.6777 122.111 93.2051C122.111 92.7598 121.951 92.4004 121.631 92.127C121.314 91.8535 120.922 91.7168 120.453 91.7168C120.02 91.7168 119.645 91.834 119.328 92.0684C119.012 92.2988 118.828 92.6094 118.777 93L118.045 92.8066ZM124.514 95.0273C124.514 94.5469 124.539 94.1133 124.59 93.7266C124.641 93.3359 124.732 92.9629 124.865 92.6074C124.998 92.252 125.168 91.9551 125.375 91.7168C125.586 91.4746 125.859 91.2832 126.195 91.1426C126.531 90.998 126.92 90.9258 127.361 90.9258C127.803 90.9258 128.189 90.998 128.521 91.1426C128.857 91.2832 129.129 91.4746 129.336 91.7168C129.547 91.9551 129.717 92.2539 129.846 92.6133C129.975 92.9688 130.064 93.3398 130.115 93.7266C130.166 94.1133 130.191 94.5469 130.191 95.0273C130.191 95.5039 130.166 95.9355 130.115 96.3223C130.064 96.709 129.975 97.082 129.846 97.4414C129.717 97.7969 129.547 98.0938 129.336 98.332C129.129 98.5703 128.857 98.7617 128.521 98.9062C128.189 99.0469 127.803 99.1172 127.361 99.1172C126.92 99.1172 126.531 99.0469 126.195 98.9062C125.859 98.7617 125.586 98.5703 125.375 98.332C125.168 98.0898 124.998 97.791 124.865 97.4355C124.732 97.0801 124.641 96.709 124.59 96.3223C124.539 95.9355 124.514 95.5039 124.514 95.0273ZM125.357 93.9785C125.322 94.291 125.305 94.6406 125.305 95.0273C125.305 95.4141 125.322 95.7637 125.357 96.0762C125.396 96.3848 125.463 96.6836 125.557 96.9727C125.65 97.2617 125.773 97.502 125.926 97.6934C126.078 97.8848 126.275 98.0391 126.518 98.1562C126.76 98.2695 127.041 98.3262 127.361 98.3262C127.682 98.3262 127.963 98.2695 128.205 98.1562C128.447 98.0391 128.643 97.8848 128.791 97.6934C128.939 97.502 129.061 97.2617 129.154 96.9727C129.248 96.6836 129.312 96.3848 129.348 96.0762C129.383 95.7637 129.4 95.4141 129.4 95.0273C129.4 94.6367 129.383 94.2871 129.348 93.9785C129.312 93.666 129.248 93.3652 129.154 93.0762C129.061 92.7871 128.939 92.5469 128.791 92.3555C128.643 92.1602 128.447 92.0059 128.205 91.8926C127.963 91.7754 127.682 91.7168 127.361 91.7168C127.041 91.7168 126.76 91.7754 126.518 91.8926C126.275 92.0059 126.078 92.1602 125.926 92.3555C125.773 92.5469 125.65 92.7871 125.557 93.0762C125.463 93.3613 125.396 93.6621 125.357 93.9785Z" fill="#FBFBFB"/>
  </g>
  <defs>
    <linearGradient id="paint0_linear" x1="51.584" y1="20.6175" x2="121.385" y2="157.813" gradientUnits="userSpaceOnUse">
      <stop stop-color="#467F3B"/>
      <stop offset="1" stop-color="#FCFFB1"/>
    </linearGradient>
    <linearGradient id="paint1_linear" x1="22.3469" y1="-60.992" x2="124.045" y2="202.04" gradientUnits="userSpaceOnUse">
      <stop stop-color="#467F3B"/>
      <stop offset="1" stop-color="#3D8AB7"/>
    </linearGradient>
    <clipPath id="clip0">
      <rect width="248" height="192" fill="white"/>
    </clipPath>
    <clipPath id="clip1">
      <rect x="32" y="23" width="38" height="45" fill="white"/>
    </clipPath>
  </defs>
</svg>
