<svg xmlns="http://www.w3.org/2000/svg" viewBox="0 0 168.79 185.96">
  <g id="Area" fill="none" stroke="#504d50" stroke-linecap="round" stroke-linejoin="round" stroke-width=".5">
    <path d="m148.81 65.59-.71-.7-1.66.8-1.18 3.58 2.57-.26.63-1.18-.55-.72.9-1.52zM17.15 75.37l.32-1.2-1.67-3-2.12.04-2.05 1.84h-.94l.18 1.82 2.1 3.74 2.16.78 1.36-1.7.66-2.32zm.91 6.57 6.28 4.11M12.01 26.52l9.84.12-.11 4.11-7.79-.09-.17 6.37-1.99.81-.18 5.07-9.92-.05.39-2.13 1.7-2.08 1.65-3.62 2.83-4.44 2.55-1.99 1.2-2.08z"/>
    <path d="m11.61 42.91-9.92-.05-.22 1.21 2 .96-.65 2.15.99 4.42-1.18 4.26 4.41-1.35 3.78 2.02.72 1.33 1.72 1.55 1.44-.88.11-1.6 1.35-.25.69 1.58.83-1.28 1.41-.22.38.94.7-.32 9.25.41.96-2.24-.87-.93-1.77-21.26 2.84-.14-8.75-5.91-.09 3.44-7.79-.09-.17 6.37-1.99.81-.18 5.07zm10.24-16.27v-1.95l2.87-2.26 3.39-.33 6.9-4.18.22-1.35 1.83-1.85 2.95-.05.33-1.36-1.26-.78-1.13-6.05-2.38-.88-4.3.41-1.04-1.82-1.32.17-1.84 4.68-6.27 4.31.3 1.21-1.66 2.56.47 3.14-2.33 3.2-5.22 2.46-.35.6 9.84.12z"/>
    <path d="m62.14 1.25-.21 4.11.17 1.39-2.1 3.1.71 2.02 2.75 2.33 1.7 5.13-.17.94.61 1.46.31 7.24-1.11 1.08 1.52 2.19.64 2.56 2.16.29 1.84 2.77-10.43 6.43-3.42 3.05-5.78 1.34-.92-.75.4-1.05-2.16-1.24-1.18-.15-.86-1.72-16.03-10.55-8.75-5.91.02-2.62 2.87-2.26 3.39-.33 6.9-4.18.22-1.35 1.83-1.85 2.95-.05.33-1.36-1.26-.78-1.13-6.05 4.19-2.38 3.45-1.66 4.44-.49 1.23-.72 2.88.83L56.91.98l1.16.68.86-.79 1.09.64 1.84-.13.28-.13z"/>
    <path d="m69.41 11.78.18 1.39-3.24 3.19.06 1.97-1.25 1-1.7-5.13-2.75-2.33L60 9.85l2.1-3.1-.15-1.21.19-4.29 2.07-1 1.25.25.79 1.39 1.47-.88-1.26 2.5 1.01 1.34.5 1.72-2.35 2.55 1.28 1.22.47.45 1.17.57.87.42zM13.26 59.41l.62 2.84 1.48 1.41.22 1.93-2.56-.27-1.74-.88-1.83.12-2.26-.24-2.21 1.03-2.44.24-.8-1.09.35-1.23 1.18.08 2.94-1.05 2.77.96.51-.72-3.64-1.14-2.37.96-1.14-.27-.44-1.06-1.65-1.69 2.08-2.31.3-1.17 4.41-1.35 3.78 2.02.72 1.33 1.72 1.55z"/>
    <path d="m2.34 62.09-.25 1.18 1.18.08 2.94-1.05 2.77.96.51-.72-3.64-1.14-2.37.96-1.14-.27zm7.11 2.47-2.26-.24-2.21 1.03-2.44.24.57.78 2.27.85-.02 1.34 1.68.4.22-.74 2.3-.92-.11-2.74z"/>
    <path d="m15.58 65.59-2.56-.27-1.74-.88-1.83.12.11 2.74-2.3.92-.22.74.35 1.85 1.29.34 2.01 1.9h.94l2.05-1.84 2.12-.04 1.67 3-.32 1.2 2.26-.42.97 1.25v1.49l.62.41 1.09-.41.62.76 1.07-2.31-.72-.77.9-.82-.65-1.02.06-2.68 1.1-.56-1.03-.44-.72-.83.02-1.35-1.36-2.26-1.89.18-1.46 1.02-2.45-1.02z"/>
    <path d="m22.71 78.45-.62-.76-1.09.41-.62-.41V76.2l-.97-1.25-2.26.42-.66 2.32-1.36 1.7.41.16 6.47 5.2 2.89.94-.32-1.91.39-1.54-1.84-1.51-1.04.13.62-2.41z"/>
    <path d="m24.9 85.69-.32-1.91.39-1.54-1.84-1.51-1.04.13.62-2.41 1.07-2.31-.72-.77.9-.82-.65-1.02.06-2.68 1.1-.56h2l2.11-.37.49.71 1.09-.92 4.39 2.13 1.31-.31.85.5.52 3.25-1.51 1.86-.44 3.52.77 1.62.74.69-.22.53-.76.36-.61-.57-.48.55-1.36-.4-5 .35-3.46 1.9z"/>
    <path d="m45.53 81.65-1.94.53-1.8 1.25-3.63 1.26-2.35-.83.76-.36.22-.53-.74-.69-.77-1.62.44-3.52 1.51-1.86-.52-3.25-.82-3.07 3.74-.16 2.81-.44.47 1.25 1.2 1.29.22 3.27.28 4.28-.22 1.87 1.14 1.33z"/>
    <path d="m45.53 81.65 1.93-.8-.6-3.4.14-4.4-.96-2.42-.99-.91.16-.84-2.77-.52.47 1.25 1.2 1.29.5 7.55-.22 1.87 1.14 1.33z"/>
    <path d="m47.46 80.85 2.46-.26v-6.66l2.42-2.49-.41-.89.82-.63-1.07-3.21-2.16-1.84-1.28 1.77-1.96.69-1.07 1.55-.16.84.99.91.96 2.42-.14 4.4.6 3.4z"/>
    <path d="m30.16 69.71 4.39 2.13 1.31-.31.85.5-.82-3.07 3.74-.16 2.81-.44 2.77.52 1.07-1.55 1.96-.69.64-.88-.79-.36-.12-1.75-1.58.41-.65-1.68-2.35-1.81.49-1.7-2.22-.48-6.52 3.99h-1.48l-3.26 4.73-.24 2.6zm21.52-3 .12-1.59.85-.68v-1.9l3.36-.64 2.55.96 1.02 1.09 2.15-.78 3.84 1.59 1.88-1.41 2.57-.08 2.59.76 2.68-2.09 1.52 2.12.19 1.78.91.87-.32 1.31-2.02 1.69-.44 2.6-1.19.98-2.63 5.57-1.84 1.68-2.27-1.35-2.69 2.95-.96 2.78-.64-.14-.68.64-5.34.63-1.51-1.43-1.2-2.88-2.27-1.35-1.99.2v-6.76l2.42-2.39-.41-.89.82-.63-1.07-3.21z"/>
    <path d="m77.91 66.71-.91-.87-.19-1.78 1.35.81.99 2.71-.29 1.82 1.8 2.28H77.2l-.24.99 3.31 3.48.31 1.56-2.51 3.75.35 3.82 3.6 4.82-.7 1.92-10.19-1.06-1.18.38-3.51-.07.2-1.97-.52-2.68-1.27.01-.48-1.54-.82-.17.96-2.78 2.69-2.95 2.27 1.35 1.84-1.68 2.63-5.57 1.19-.98.44-2.6 2.02-1.69.32-1.31zm-48.84 3.92-.49-.71-2.11.37h-2l-1.03-.44-.72-.83.02-1.35-1.36-2.26-1.89.18-1.46 1.02-2.45-1.02-.22-1.93-1.48-1.41-.62-2.84 1.44-.88.11-1.6 1.35-.25.69 1.58.83-1.28 1.41-.22.38.94.7-.32 9.25.41.96-2.24-.87-.93-1.77-21.26 2.84-.14 16.03 10.55.86 1.72 1.18.15 2.16 1.24-.4 1.05.92.75 1.97-.46-.34 7.31-.89 1.58-3.4 1.25-4.79.51-2.22-.48-6.52 3.99h-1.48l-3.26 4.73-.24 2.6-1.09.92z"/>
    <path d="m70.96 37.86-10.43 6.43-3.42 3.05-3.81.88-.34 7.31-.89 1.58-3.4 1.25-4.79.51-.49 1.7 2.35 1.81.65 1.68 1.58-.41.12 1.75.79.36.64-.89 2.16 1.84.12-1.59.85-.68v-1.9l3.36-.64 2.55.96 1.02 1.09 2.15-.78 3.84 1.59 1.88-1.41 2.57-.08 2.59.76 2.68-2.09-.13-2.61 4.9-5.21-.14-3.71.93-5.51-1.39-1.99-.18-1.82-1.15-2.79-2.29.95-1.81-.97-3.07-.42z"/>
    <path d="m69.41 11.78.18 1.39-3.24 3.19.06 1.97-1.25 1-.17.94.61 1.46.31 7.24-1.11 1.08 1.52 2.19.64 2.56 2.16.29 1.84 2.77 3.07.42 1.81.97 2.29-.95 2.72-.99 19.68 9.85.1-.71 2.35-.36-.97-24.7-.51-1.84.54-3.91-.98-1.06-3.63-.56-1.13-1.14-2.57-.66-2.36.58-1.52.9-.51 1.78.56 2.06-1.93 2.31-4.56-2.59-3.43-.37-.95-.86-.99-2.46-2.13-.9-4.67-.12-1.83-.77z"/>
    <path d="m106.64 16.03-4.6-.38-.53 3.86.5 1.88.78 19.92 29.11-.33-1.5-1.42-1.8-.69-.43-2.35.8-.29-4.04-5.73-1.41-3.67-3.13-4.63-.21-1.56 4.48 5.41 1.19-4.69-.51-2.32-1.64-2.87-2.6.43-2.32-.19-3.06-.69-4.02 1.82-2.59-.67-2.47-.84z"/>
    <path d="m131.9 40.98 1.45 7.43 3.23 3.02-2.79 1.36.2.46-1.32.89.42.87-1.34 4.07.52 1.69-1.3 3.56-2.34 2.94-.54 2.15-.93.3-.93 5.48-1.88.16-.56 1.35 1.83.69 3.04 3.55.55 1.82-2.81 3.14-1.26.95-3.03.24-.35.83-.96-.74-1.94-.23-.26.74-.82-.28-.61-1.1-1.95-1.84-1.24.85-1.14-.13-1 .54-2.11-2.16-3.19-4.22-2.31-1.29.15-1.13-2.84-2.38h-1.66l.44-2.09-2.13-3.67.17-.99-1.14-.68-.26-2.4-.93.28-.12-.79.97-1.46-.23-.9 1.95-3.4.11-1.19 1.94.24-.12-10.35.1-.71 2.35-.36-.19-4.78 29.11-.33zM69.95 91.34l-3.51-.07-1.39 2.46.68.79 1.23-.29 2.99.03v-2.92z"/>
    <path d="m69.95 91.34 1.18-.38 3.37.35.21 2.35 2.85-.29.16 1.91-1.13.47.24 1.69.78 1.66-.89 3.52-.91-.6-1.47.29-1.14-1.47-.44 1.37-1.53.41-1.28-.18.21 1.07 1.13.28.35 1.89-.87-.61-1.3 1.21-3.63-3.25-2.18-4.72.89-.19.37-2.19.94-.1-.98-.92.85-.39 1.23-.29 2.99.03v-2.92z"/>
    <path d="m81.32 92.02-6.82-.71.21 2.35 2.85-.29.16 1.91-1.13.47.24 1.69.78 1.66-.89 3.52-.91-.6-1.47.29-1.14-1.47-.44 1.37-1.53.41-1.28-.18.21 1.07 1.13.28.35 1.89-.87-.61-1.3 1.21 2.13 3.01 1.92-1.99 1.87 1.34.8-.92 1.58-.59-.25 1.32.8.42 3.16-3.06.22-3.69 1.65-2.41 1.94-1.09.92-3.14.63-4.72 1.5-2.36-.24-1.05-3.36.19-2.72 2.56-.7 1.92z"/>
    <path d="m75.39 108.64-1.87-1.34-1.92 1.99.25.35.15 1.39 1.07-.7.05-1.06 1.08-.92 1.19.29z"/>
    <path d="m72 111.03.04.47 11.02-.47 1.7 5.36h4.56l-.07-1.19.67-1.25 2.82-.24.37.92 2.67.16-.3 4.69 1.27 3.9-.28 1.09 1.13-.33 1.35.34 1.87-.54 1.43 1.02 1.68-.62.25 1.27 3.07.9 1.32-1.28.92 1.57 1.62.76 2.14 2.21 1.8-.02.13-2.72-1.55.62-1.82-1.81.38-2.44.63-2.63-.68-1 .73-1.57 1.42-1.02 3.11-.29-.81-2.37-1.46-2.28-1.5-9.46.5-2.03.91-1.07 1.03-4.41 2.76-3.61-.74-1.96.51-2-.82-.28-.61-1.1-1.95-1.84-1.24.85-1.14-.13-1 .54-2.11-2.16-4.71-.34-2.05 1.1-4.69.22-.96 1.53-3.46-.34-2.88-1.61-1.57.12-1.31 3.09.24 1.05-1.5 2.36-.63 4.72-.92 3.14-1.94 1.09-1.65 2.41-.22 3.69-3.16 3.06-.8-.42.25-1.32-1.58.59-.8.92-1.19-.29-1.08.92-.05 1.06-1.07.7z"/>
    <path d="m72.04 111.5 1.66 2.51.09 1.41 1.09 2.06-.99 1.61 1.5 3.76.5 2.83-1.03 1.69-2.76 2.92-.32 2.97-1.48 2.64-.04 3.81 1.08-.25.8.27.95-1 1.53.23 1.42 1.18 1.15-.41 9.21.15 2.63 1.29 2.26-.35 1.13.69 1.22-.22 1.65.28 3.61-.84-3.39-3.59.25-8.23h5.18l-.12-4.97-1.87.54-1.35-.34-1.13.33.28-1.09-1.27-3.9.3-4.69-2.67-.16-.37-.92-2.82.24-.67 1.25.07 1.19h-4.56l-1.7-5.36-11.02.47z"/>
    <path d="m101.58 140.11 1.73.39-1.54.91h-1.02l-1.89 1.53-.54-1.37-2.81.96-2.38.02-.65 8.83-1.94.04-.81 16.49-2.06.86-.39.95-4.27-.9.29-1.07-1.13-.47-1.2 1.7-2.85-4.35-1.87-10.4.3-1.22-3.65-7.78-2.67-3.77.03-1.75 1.08-.25.8.27.95-1 1.53.23 1.42 1.18 1.15-.41 9.21.15 2.63 1.29 2.26-.35 1.13.69 1.22-.22 1.65.28 6.29-1.46z"/>
    <path d="m103.31 140.5-1.54.91h-1.02l-1.89 1.53-.54-1.37-2.81.96-2.38.02-.65 8.83-1.94.04-.38 7.64 1.8 2.88-.59 1.87 2.59-.22 4.11-3.32 2.54 1.01h2.96l.6-2.18 2.69-2.04.27-1.43 5.95-3.65-.78-1.03-2.5-.6-.8-2.28-3.02-2.91-2.67-4.66zm15.36 21.4-1.64-.72-.96 2.29.71 1.13 1.94.44.52-1.32.1-1.02-.67-.8z"/>
    <path d="m120.76 163.94-1.52-.22.1-1.02-.67-.8-.03-6.76-.78-2.3 2.82-2.61.22-2.57 1.3-1.65-.17-3.84.44-3.44-4.03-2.25h-2.14v-2.37l6.81-2.44.73-.02.78 1.09 2 .01-.77 3.74 2.22 2.88 1.65-3.6-.19-1.25.71-1-3.39-4.01-.39-4.5 3.7-.22 1.13 1.02 1.86-.75 3.96-.51 4.65-1.89-.44 2.4.35 2.63-.31 2.59.22 3.63-2.27 3.4-5.85 3.32-6.32 5.25-.77-.08.84 6.18.78-.7-.72 4.75.39.62-1.56 1.9-3.47 1-2.6 2.17.43.9.7.07-.4 1.25z"/>
    <path d="m120.68 150.23-2.82 2.61-4.78-.86-.78-1.03-2.5-.6-.8-2.28-3.02-2.91-2.67-4.66 4.25.96 3.83-3.54 1.55-2.12 3.36-.18v.86h2.14l4.03 2.25-.44 3.44.17 3.84-1.3 1.65-.22 2.57zm7.39-10.86 1.65-3.6-.19-1.25.71-1-3.39-4.01-.39-4.5-.53-3.64-2.28-1.5.97 3.16-.78 1.6.34 2.96-1.71 2.84.64 1.24.73-.02.78 1.09 2 .01-.77 3.74 2.22 2.88z"/>
    <path d="m141.76 122.66-4.65 1.89-3.96.51-1.86.75-1.13-1.02-3.7.22-.53-3.64-2.28-1.5-4.31-2.36-1.94-.62-.81-2.37-1.46-2.28-.72-4.58h1.66l2.44-2.91-.82-1.86.82-.48-.92-3.13 8.12-.67 9.44 5.62.69 1.51 3.08 2.18-1.19 3.15 1.76 2.38-.76 1.89 1.25 5.95 1.78 1.37z"/>
    <path d="m113.63 102.78.78 4.88h1.66l2.44-2.91-.82-1.86-1.34-1.06-.63 1.56-2.09-.61z"/>
    <path d="m117.59 99.28-2.55.4-.91 1.07-.5 2.03 2.09.61.63-1.56 1.34 1.06.82-.48-.92-3.13z"/>
    <path d="m125.14 86.86-3.03.24-.35.83-.96-.74-1.94-.23-.77 2.74.74 1.96-2.76 3.61-1.03 4.41 2.55-.4 8.12-.67.39-2.96 3.21-4.37-2.91-5.37-1.26.95z"/>
    <path d="m138.92 107.92 2.84-5.06 2.12-1.12 1.33-1.73-1.8-1.97.18-9.18 2.28-2.45-1.62.24-1.72-.78-1.66.56-1.27 1.32-3.62-.71-2.26-1.94h-2.97l-.39-1.98-1.15-.35-2.81 3.14 2.91 5.37-3.21 4.37-.39 2.96 9.44 5.62.69 1.51 3.08 2.18z"/>
    <path d="m123.79 76.71.56-1.35 1.88-.16.93-5.48.93-.3.54-2.15 2.34-2.94 1.3-3.56h1.09l.98-1.56 1.96.55 3.9.65 4.8 3.34 1.44 1.94-1.18 3.58 2.57-.26.57 2.63 1.05 1.77 8.64 3.04 3.12-.13-7.69 7.6-3.39.18-4.26 2.31-1.62.24-1.72-.78-1.66.56-1.27 1.32-3.62-.71-2.26-1.94h-2.97l-.39-1.98-1.15-.35-.55-1.82-3.04-3.55-1.83-.69z"/>
    <path d="m143.41 98.04 1.8 1.97 3.52-3.83 4.1-4.07 2.1-.9 5.15-4.66 3.34-5.34 1.72-4.47 2.4-3.32.65-3 .35-3.25-1.64-.6-1.04 1.24-10.88 1.94-3.08 1.29-2.22-1.6-1.22-1.61-.63 1.18.57 2.63 1.05 1.77 8.64 3.04 3.12-.13-7.69 7.6-3.39.18-4.26 2.31-2.28 2.45-.18 9.18zm4.69-33.15-1.66.8-1.44-1.94-4.8-3.34-3.9-.65-1.96-.55-.98 1.56h-1.09l-.52-1.69 1.34-4.07-.42-.87 1.32-.89-.2-.46 2.79-1.36.47.3 2.44 6.66.61-.71.89 1.43 1.12-.05 5.99 5.83z"/>
    <path fill-rule="evenodd" d="m162.9 126.66-3.31 4.39.06 2.37-2.11 1.23-1.28.47-.37 1.42-1.08-.92-3.24 1.51h-1.26l-1.25 3.03 1.33 4.76-2.9 5.04-.72 2.21.5 4.47.64 2.44 2.68 2.2 2.7-1.21 2.14-.37 3.69-7.79 4.56-14.21v-2.47l.99 1.2.52-1.93-.58-4.4-1.71-3.44zM10.94 22.73H9.83l-2.28 3 1.95-.67.12-1.18 1.32-1.15zm-6.05 2.33v1.48l1.29-.99-1.29-.49zm-.76-.61-.13.68-1.29.55-.51-1.23h1.93z"/>
    <path d="m107.22 173.42 1.25 1 .59-.45.3-.73 1.16-.41h.67l.16-.48-.17-.71.83-.65-.41-1.39-.92-.48-.98-.28-.68.65-1.13.23-.54 1.03-1.06.89.93 1.78zm-43.45-86.5-1.16 1.49 1.05.31.56-.94-.45-.86zm-5.79 8.83.21.77.83-.26-1.04-.51z"/>
    <path d="m80.97 168.98 1.19-1.69 1.13.47-.29 1.07 4.27.89.39-.95 2.06-.87.43-8.84 1.8 2.87-.59 1.87 2.6-.21 4.11-3.32 2.54 1h2.96l.59-2.17 2.69-2.05.28-1.43 5.95-3.65 4.78.86.78 2.3.02 6.76-1.64-.72-.96 2.28.71 1.13 1.95.44.52-1.32 1.52.22-1.27 3.97-3.84 4.25-2.69 4.24-5.12 4.54-3.54 1.95-1.73.02-.7 1.02-2.3.23-1.91-.63-3.32.22-1.77 1.07h-2.19l-1.75.88-1.81-.49-.81-.61-1.48-.47.19-2.18-1.07-2.02 1.09-.31-.39-2.59-3.39-8.07Zm26.25 4.44 1.25 1 .59-.45.3-.73 1.16-.41h.67l.16-.48-.17-.72.84-.65-.41-1.39-.92-.48-.99-.27-.68.65-1.13.23-.54 1.03-1.06.88.93 1.78Zm2.51-89.84-3.19-4.22-2.31-1.29.15-1.13-2.84-2.38h-1.66l.44-2.09-2.13-3.67-2.59.92-1.39 1.5L92.94 74h-4.22l.48 1.38-5.36 2.33-.78-.88-.77 1.2-1.71-.32-2.51 3.75.35 3.82 3.6 4.82 2.72-2.56 3.36-.19 1.31-3.09 1.57-.12 2.88 1.61 3.46.34.96-1.53 4.69-.22 2.05-1.1 4.71.34zm5.32 46.17.13-2.72-1.55.62-1.82-1.81.38-2.44.63-2.63-.68-1 .73-1.57 1.42-1.02 3.11-.29 1.94.62 4.31 2.36.97 3.16-.78 1.6.34 2.96-1.71 2.84.64 1.24-6.81 2.44v1.51l-3.36.18-1.55 2.12-3.83 3.54-5.98-1.35-2.68.62-3.39-3.59.25-8.23h5.18l-.12-4.97 1.43 1.02 1.68-.62.25 1.27 3.07.9 1.32-1.28.92 1.57 1.62.76 2.14 2.21 1.8-.02z"/>
    <path d="m128.66 80.95-3.04-3.55-1.83-.69.56-1.35 1.88-.16.62-3.66-2.2-2.27-.48-2.19.53-1.39h-1.65v.88h-1.39l.51.51.29 2.19-2.42 2.51-1.58.06-2.21-1.21-.89.7v.61l-8.11.29-1.22-1.6-2.14.33-.52 1.41-3.05.1-.44 2.09h1.66l2.84 2.38-.15 1.13 2.31 1.29 3.19 4.22 2.11 2.16 1-.54 1.14.13 1.24-.85 1.95 1.84.61 1.1.82.28.26-.74 1.94.23.96.74.35-.83 3.03-.24 1.26-.95 2.81-3.14-.55-1.82zm20.15-15.36-.71-.7-1.66.8-1.18 3.58 2.57-.26.63-1.18-.55-.72.9-1.52zM17.15 75.37l.32-1.2-1.67-3-2.12.04-2.05 1.84h-.94l.18 1.82 2.1 3.74 2.16.78 1.36-1.7.66-2.32zm.91 6.57 6.28 4.11M12.01 26.52l9.84.12-.11 4.11-7.79-.09-.17 6.37-1.99.81-.18 5.07-9.92-.05.39-2.13 1.7-2.08 1.65-3.62 2.83-4.44 2.55-1.99 1.2-2.08z"/>
    <path d="m11.61 42.91-9.92-.05-.22 1.21 2 .96-.65 2.15.99 4.42-1.18 4.26 4.41-1.35 3.78 2.02.72 1.33 1.72 1.55 1.44-.88.11-1.6 1.35-.25.69 1.58.83-1.28 1.41-.22.38.94.7-.32 9.25.41.96-2.24-.87-.93-1.77-21.26 2.84-.14-8.75-5.91-.09 3.44-7.79-.09-.17 6.37-1.99.81-.18 5.07zm10.24-16.27v-1.95l2.87-2.26 3.39-.33 6.9-4.18.22-1.35 1.83-1.85 2.95-.05.33-1.36-1.26-.78-1.13-6.05-2.38-.88-4.3.41-1.04-1.82-1.32.17-1.84 4.68-6.27 4.31.3 1.21-1.66 2.56.47 3.14-2.33 3.2-5.22 2.46-.35.6 9.84.12z"/>
    <path d="m62.14 1.25-.21 4.11.17 1.39-2.1 3.1.71 2.02 2.75 2.33 1.7 5.13-.17.94.61 1.46.31 7.24-1.11 1.08 1.52 2.19.64 2.56 2.16.29 1.84 2.77-10.43 6.43-3.42 3.05-5.78 1.34-.92-.75.4-1.05-2.16-1.24-1.18-.15-.86-1.72-16.03-10.55-8.75-5.91.02-2.62 2.87-2.26 3.39-.33 6.9-4.18.22-1.35 1.83-1.85 2.95-.05.33-1.36-1.26-.78-1.13-6.05 4.19-2.38 3.45-1.66 4.44-.49 1.23-.72 2.88.83L56.91.98l1.16.68.86-.79 1.09.64 1.84-.13.28-.13z"/>
    <path d="m69.41 11.78.18 1.39-3.24 3.19.06 1.97-1.25 1-1.7-5.13-2.75-2.33L60 9.85l2.1-3.1-.15-1.21.19-4.29 2.07-1 1.25.25.79 1.39 1.47-.88-1.26 2.5 1.01 1.34.5 1.72-2.35 2.55 1.28 1.22.47.45 1.17.57.87.42zM13.26 59.41l.62 2.84 1.48 1.41.22 1.93-2.56-.27-1.74-.88-1.83.12-2.26-.24-2.21 1.03-2.44.24-.8-1.09.35-1.23 1.18.08 2.94-1.05 2.77.96.51-.72-3.64-1.14-2.37.96-1.14-.27-.44-1.06-1.65-1.69 2.08-2.31.3-1.17 4.41-1.35 3.78 2.02.72 1.33 1.72 1.55z"/>
    <path d="m2.34 62.09-.25 1.18 1.18.08 2.94-1.05 2.77.96.51-.72-3.64-1.14-2.37.96-1.14-.27zm7.11 2.47-2.26-.24-2.21 1.03-2.44.24.57.78 2.27.85-.02 1.34 1.68.4.22-.74 2.3-.92-.11-2.74z"/>
    <path d="m15.58 65.59-2.56-.27-1.74-.88-1.83.12.11 2.74-2.3.92-.22.74.35 1.85 1.29.34 2.01 1.9h.94l2.05-1.84 2.12-.04 1.67 3-.32 1.2 2.26-.42.97 1.25v1.49l.62.41 1.09-.41.62.76 1.07-2.31-.72-.77.9-.82-.65-1.02.06-2.68 1.1-.56-1.03-.44-.72-.83.02-1.35-1.36-2.26-1.89.18-1.46 1.02-2.45-1.02z"/>
    <path d="m22.71 78.45-.62-.76-1.09.41-.62-.41V76.2l-.97-1.25-2.26.42-.66 2.32-1.36 1.7.41.16 6.47 5.2 2.89.94-.32-1.91.39-1.54-1.84-1.51-1.04.13.62-2.41z"/>
    <path d="m24.9 85.69-.32-1.91.39-1.54-1.84-1.51-1.04.13.62-2.41 1.07-2.31-.72-.77.9-.82-.65-1.02.06-2.68 1.1-.56h2l2.11-.37.49.71 1.09-.92 4.39 2.13 1.31-.31.85.5.52 3.25-1.51 1.86-.44 3.52.77 1.62.74.69-.22.53-.76.36-.61-.57-.48.55-1.36-.4-5 .35-3.46 1.9z"/>
    <path d="m45.53 81.65-1.94.53-1.8 1.25-3.63 1.26-2.35-.83.76-.36.22-.53-.74-.69-.77-1.62.44-3.52 1.51-1.86-.52-3.25-.82-3.07 3.74-.16 2.81-.44.47 1.25 1.2 1.29.22 3.27.28 4.28-.22 1.87 1.14 1.33z"/>
    <path d="m45.53 81.65 1.93-.8-.6-3.4.14-4.4-.96-2.42-.99-.91.16-.84-2.77-.52.47 1.25 1.2 1.29.5 7.55-.22 1.87 1.14 1.33z"/>
    <path d="m47.46 80.85 2.46-.26v-6.66l2.42-2.49-.41-.89.82-.63-1.07-3.21-2.16-1.84-1.28 1.77-1.96.69-1.07 1.55-.16.84.99.91.96 2.42-.14 4.4.6 3.4z"/>
    <path d="m30.16 69.71 4.39 2.13 1.31-.31.85.5-.82-3.07 3.74-.16 2.81-.44 2.77.52 1.07-1.55 1.96-.69.64-.88-.79-.36-.12-1.75-1.58.41-.65-1.68-2.35-1.81.49-1.7-2.22-.48-6.52 3.99h-1.48l-3.26 4.73-.24 2.6zm21.52-3 .12-1.59.85-.68v-1.9l3.36-.64 2.55.96 1.02 1.09 2.15-.78 3.84 1.59 1.88-1.41 2.57-.08 2.59.76 2.68-2.09 1.52 2.12.19 1.78.91.87-.32 1.31-2.02 1.69-.44 2.6-1.19.98-2.63 5.57-1.84 1.68-2.27-1.35-2.69 2.95-.96 2.78-.64-.14-.68.64-5.34.63-1.51-1.43-1.2-2.88-2.27-1.35-1.99.2v-6.76l2.42-2.39-.41-.89.82-.63-1.07-3.21z"/>
    <path d="m77.91 66.71-.91-.87-.19-1.78 1.35.81.99 2.71-.29 1.82 1.8 2.28H77.2l-.24.99 3.31 3.48.31 1.56-2.51 3.75.35 3.82 3.6 4.82-.7 1.92-10.19-1.06-1.18.38-3.51-.07.2-1.97-.52-2.68-1.27.01-.48-1.54-.82-.17.96-2.78 2.69-2.95 2.27 1.35 1.84-1.68 2.63-5.57 1.19-.98.44-2.6 2.02-1.69.32-1.31zm-48.84 3.92-.49-.71-2.11.37h-2l-1.03-.44-.72-.83.02-1.35-1.36-2.26-1.89.18-1.46 1.02-2.45-1.02-.22-1.93-1.48-1.41-.62-2.84 1.44-.88.11-1.6 1.35-.25.69 1.58.83-1.28 1.41-.22.38.94.7-.32 9.25.41.96-2.24-.87-.93-1.77-21.26 2.84-.14 16.03 10.55.86 1.72 1.18.15 2.16 1.24-.4 1.05.92.75 1.97-.46-.34 7.31-.89 1.58-3.4 1.25-4.79.51-2.22-.48-6.52 3.99h-1.48l-3.26 4.73-.24 2.6-1.09.92z"/>
    <path d="m70.96 37.86-10.43 6.43-3.42 3.05-3.81.88-.34 7.31-.89 1.58-3.4 1.25-4.79.51-.49 1.7 2.35 1.81.65 1.68 1.58-.41.12 1.75.79.36.64-.89 2.16 1.84.12-1.59.85-.68v-1.9l3.36-.64 2.55.96 1.02 1.09 2.15-.78 3.84 1.59 1.88-1.41 2.57-.08 2.59.76 2.68-2.09-.13-2.61 4.9-5.21-.14-3.71.93-5.51-1.39-1.99-.18-1.82-1.15-2.79-2.29.95-1.81-.97-3.07-.42z"/>
    <path d="m69.41 11.78.18 1.39-3.24 3.19.06 1.97-1.25 1-.17.94.61 1.46.31 7.24-1.11 1.08 1.52 2.19.64 2.56 2.16.29 1.84 2.77 3.07.42 1.81.97 2.29-.95 2.72-.99 19.68 9.85.1-.71 2.35-.36-.97-24.7-.51-1.84.54-3.91-.98-1.06-3.63-.56-1.13-1.14-2.57-.66-2.36.58-1.52.9-.51 1.78.56 2.06-1.93 2.31-4.56-2.59-3.43-.37-.95-.86-.99-2.46-2.13-.9-4.67-.12-1.83-.77z"/>
    <path d="m106.64 16.03-4.6-.38-.53 3.86.5 1.88.78 19.92 29.11-.33-1.5-1.42-1.8-.69-.43-2.35.8-.29-4.04-5.73-1.41-3.67-3.13-4.63-.21-1.56 4.48 5.41 1.19-4.69-.51-2.32-1.64-2.87-2.6.43-2.32-.19-3.06-.69-4.02 1.82-2.59-.67-2.47-.84z"/>
    <path d="m131.9 40.98 1.45 7.43 3.23 3.02-2.79 1.36.2.46-1.32.89.42.87-1.34 4.07.52 1.69-1.3 3.56-2.34 2.94-.54 2.15-.93.3-.93 5.48-1.88.16-.56 1.35 1.83.69 3.04 3.55.55 1.82-2.81 3.14-1.26.95-3.03.24-.35.83-.96-.74-1.94-.23-.26.74-.82-.28-.61-1.1-1.95-1.84-1.24.85-1.14-.13-1 .54-2.11-2.16-3.19-4.22-2.31-1.29.15-1.13-2.84-2.38h-1.66l.44-2.09-2.13-3.67.17-.99-1.14-.68-.26-2.4-.93.28-.12-.79.97-1.46-.23-.9 1.95-3.4.11-1.19 1.94.24-.12-10.35.1-.71 2.35-.36-.19-4.78 29.11-.33zM69.95 91.34l-3.51-.07-1.39 2.46.68.79 1.23-.29 2.99.03v-2.92z"/>
    <path d="m69.95 91.34 1.18-.38 3.37.35.21 2.35 2.85-.29.16 1.91-1.13.47.24 1.69.78 1.66-.89 3.52-.91-.6-1.47.29-1.14-1.47-.44 1.37-1.53.41-1.28-.18.21 1.07 1.13.28.35 1.89-.87-.61-1.3 1.21-3.63-3.25-2.18-4.72.89-.19.37-2.19.94-.1-.98-.92.85-.39 1.23-.29 2.99.03v-2.92z"/>
    <path d="m81.32 92.02-6.82-.71.21 2.35 2.85-.29.16 1.91-1.13.47.24 1.69.78 1.66-.89 3.52-.91-.6-1.47.29-1.14-1.47-.44 1.37-1.53.41-1.28-.18.21 1.07 1.13.28.35 1.89-.87-.61-1.3 1.21 2.13 3.01 1.92-1.99 1.87 1.34.8-.92 1.58-.59-.25 1.32.8.42 3.16-3.06.22-3.69 1.65-2.41 1.94-1.09.92-3.14.63-4.72 1.5-2.36-.24-1.05-3.36.19-2.72 2.56-.7 1.92z"/>
    <path d="m75.39 108.64-1.87-1.34-1.92 1.99.25.35.15 1.39 1.07-.7.05-1.06 1.08-.92 1.19.29z"/>
    <path d="m72 111.03.04.47 11.02-.47 1.7 5.36h4.56l-.07-1.19.67-1.25 2.82-.24.37.92 2.67.16-.3 4.69 1.27 3.9-.28 1.09 1.13-.33 1.35.34 1.87-.54 1.43 1.02 1.68-.62.25 1.27 3.07.9 1.32-1.28.92 1.57 1.62.76 2.14 2.21 1.8-.02.13-2.72-1.55.62-1.82-1.81.38-2.44.63-2.63-.68-1 .73-1.57 1.42-1.02 3.11-.29-.81-2.37-1.46-2.28-1.5-9.46.5-2.03.91-1.07 1.03-4.41 2.76-3.61-.74-1.96.51-2-.82-.28-.61-1.1-1.95-1.84-1.24.85-1.14-.13-1 .54-2.11-2.16-4.71-.34-2.05 1.1-4.69.22-.96 1.53-3.46-.34-2.88-1.61-1.57.12-1.31 3.09.24 1.05-1.5 2.36-.63 4.72-.92 3.14-1.94 1.09-1.65 2.41-.22 3.69-3.16 3.06-.8-.42.25-1.32-1.58.59-.8.92-1.19-.29-1.08.92-.05 1.06-1.07.7z"/>
    <path d="m72.04 111.5 1.66 2.51.09 1.41 1.09 2.06-.99 1.61 1.5 3.76.5 2.83-1.03 1.69-2.76 2.92-.32 2.97-1.48 2.64-.04 3.81 1.08-.25.8.27.95-1 1.53.23 1.42 1.18 1.15-.41 9.21.15 2.63 1.29 2.26-.35 1.13.69 1.22-.22 1.65.28 3.61-.84-3.39-3.59.25-8.23h5.18l-.12-4.97-1.87.54-1.35-.34-1.13.33.28-1.09-1.27-3.9.3-4.69-2.67-.16-.37-.92-2.82.24-.67 1.25.07 1.19h-4.56l-1.7-5.36-11.02.47z"/>
    <path d="m101.58 140.11 1.73.39-1.54.91h-1.02l-1.89 1.53-.54-1.37-2.81.96-2.38.02-.65 8.83-1.94.04-.81 16.49-2.06.86-.39.95-4.27-.9.29-1.07-1.13-.47-1.2 1.7-2.85-4.35-1.87-10.4.3-1.22-3.65-7.78-2.67-3.77.03-1.75 1.08-.25.8.27.95-1 1.53.23 1.42 1.18 1.15-.41 9.21.15 2.63 1.29 2.26-.35 1.13.69 1.22-.22 1.65.28 6.29-1.46z"/>
    <path d="m103.31 140.5-1.54.91h-1.02l-1.89 1.53-.54-1.37-2.81.96-2.38.02-.65 8.83-1.94.04-.38 7.64 1.8 2.88-.59 1.87 2.59-.22 4.11-3.32 2.54 1.01h2.96l.6-2.18 2.69-2.04.27-1.43 5.95-3.65-.78-1.03-2.5-.6-.8-2.28-3.02-2.91-2.67-4.66zm15.36 21.4-1.64-.72-.96 2.29.71 1.13 1.94.44.52-1.32.1-1.02-.67-.8z"/>
    <path d="m120.76 163.94-1.52-.22.1-1.02-.67-.8-.03-6.76-.78-2.3 2.82-2.61.22-2.57 1.3-1.65-.17-3.84.44-3.44-4.03-2.25h-2.14v-2.37l6.81-2.44.73-.02.78 1.09 2 .01-.77 3.74 2.22 2.88 1.65-3.6-.19-1.25.71-1-3.39-4.01-.39-4.5 3.7-.22 1.13 1.02 1.86-.75 3.96-.51 4.65-1.89-.44 2.4.35 2.63-.31 2.59.22 3.63-2.27 3.4-5.85 3.32-6.32 5.25-.77-.08.84 6.18.78-.7-.72 4.75.39.62-1.56 1.9-3.47 1-2.6 2.17.43.9.7.07-.4 1.25z"/>
    <path d="m120.68 150.23-2.82 2.61-4.78-.86-.78-1.03-2.5-.6-.8-2.28-3.02-2.91-2.67-4.66 4.25.96 3.83-3.54 1.55-2.12 3.36-.18v.86h2.14l4.03 2.25-.44 3.44.17 3.84-1.3 1.65-.22 2.57zm7.39-10.86 1.65-3.6-.19-1.25.71-1-3.39-4.01-.39-4.5-.53-3.64-2.28-1.5.97 3.16-.78 1.6.34 2.96-1.71 2.84.64 1.24.73-.02.78 1.09 2 .01-.77 3.74 2.22 2.88z"/>
    <path d="m141.76 122.66-4.65 1.89-3.96.51-1.86.75-1.13-1.02-3.7.22-.53-3.64-2.28-1.5-4.31-2.36-1.94-.62-.81-2.37-1.46-2.28-.72-4.58h1.66l2.44-2.91-.82-1.86.82-.48-.92-3.13 8.12-.67 9.44 5.62.69 1.51 3.08 2.18-1.19 3.15 1.76 2.38-.76 1.89 1.25 5.95 1.78 1.37z"/>
    <path d="m113.63 102.78.78 4.88h1.66l2.44-2.91-.82-1.86-1.34-1.06-.63 1.56-2.09-.61z"/>
    <path d="m117.59 99.28-2.55.4-.91 1.07-.5 2.03 2.09.61.63-1.56 1.34 1.06.82-.48-.92-3.13z"/>
    <path d="m125.14 86.86-3.03.24-.35.83-.96-.74-1.94-.23-.77 2.74.74 1.96-2.76 3.61-1.03 4.41 2.55-.4 8.12-.67.39-2.96 3.21-4.37-2.91-5.37-1.26.95z"/>
    <path d="m138.92 107.92 2.84-5.06 2.12-1.12 1.33-1.73-1.8-1.97.18-9.18 2.28-2.45-1.62.24-1.72-.78-1.66.56-1.27 1.32-3.62-.71-2.26-1.94h-2.97l-.39-1.98-1.15-.35-2.81 3.14 2.91 5.37-3.21 4.37-.39 2.96 9.44 5.62.69 1.51 3.08 2.18z"/>
    <path d="m123.79 76.71.56-1.35 1.88-.16.93-5.48.93-.3.54-2.15 2.34-2.94 1.3-3.56h1.09l.98-1.56 1.96.55 3.9.65 4.8 3.34 1.44 1.94-1.18 3.58 2.57-.26.57 2.63 1.05 1.77 8.64 3.04 3.12-.13-7.69 7.6-3.39.18-4.26 2.31-1.62.24-1.72-.78-1.66.56-1.27 1.32-3.62-.71-2.26-1.94h-2.97l-.39-1.98-1.15-.35-.55-1.82-3.04-3.55-1.83-.69z"/>
    <path d="m143.41 98.04 1.8 1.97 3.52-3.83 4.1-4.07 2.1-.9 5.15-4.66 3.34-5.34 1.72-4.47 2.4-3.32.65-3 .35-3.25-1.64-.6-1.04 1.24-10.88 1.94-3.08 1.29-2.22-1.6-1.22-1.61-.63 1.18.57 2.63 1.05 1.77 8.64 3.04 3.12-.13-7.69 7.6-3.39.18-4.26 2.31-2.28 2.45-.18 9.18zm4.69-33.15-1.66.8-1.44-1.94-4.8-3.34-3.9-.65-1.96-.55-.98 1.56h-1.09l-.52-1.69 1.34-4.07-.42-.87 1.32-.89-.2-.46 2.79-1.36.47.3 2.44 6.66.61-.71.89 1.43 1.12-.05 5.99 5.83z"/>
    <path fill-rule="evenodd" d="m162.9 126.66-3.31 4.39.06 2.37-2.11 1.23-1.28.47-.37 1.42-1.08-.92-3.24 1.51h-1.26l-1.25 3.03 1.33 4.76-2.9 5.04-.72 2.21.5 4.47.64 2.44 2.68 2.2 2.7-1.21 2.14-.37 3.69-7.79 4.56-14.21v-2.47l.99 1.2.52-1.93-.58-4.4-1.71-3.44zM10.94 22.73H9.83l-2.28 3 1.95-.67.12-1.18 1.32-1.15zm-6.05 2.33v1.48l1.29-.99-1.29-.49zm-.76-.61-.13.68-1.29.55-.51-1.23h1.93z"/>
    <path d="m107.22 173.42 1.25 1 .59-.45.3-.73 1.16-.41h.67l.16-.48-.17-.71.83-.65-.41-1.39-.92-.48-.98-.28-.68.65-1.13.23-.54 1.03-1.06.89.93 1.78zm-43.45-86.5-1.16 1.49 1.05.31.56-.94-.45-.86zm-5.79 8.83.21.77.83-.26-1.04-.51z"/>
    <path d="m80.97 168.98 1.19-1.69 1.13.47-.29 1.07 4.27.89.39-.95 2.06-.87.43-8.84 1.8 2.87-.59 1.87 2.6-.21 4.11-3.32 2.54 1h2.96l.59-2.17 2.69-2.05.28-1.43 5.95-3.65 4.78.86.78 2.3.02 6.76-1.64-.72-.96 2.28.71 1.13 1.95.44.52-1.32 1.52.22-1.27 3.97-3.84 4.25-2.69 4.24-5.12 4.54-3.54 1.95-1.73.02-.7 1.02-2.3.23-1.91-.63-3.32.22-1.77 1.07h-2.19l-1.75.88-1.81-.49-.81-.61-1.48-.47.19-2.18-1.07-2.02 1.09-.31-.39-2.59-3.39-8.07Zm26.25 4.44 1.25 1 .59-.45.3-.73 1.16-.41h.67l.16-.48-.17-.72.84-.65-.41-1.39-.92-.48-.99-.27-.68.65-1.13.23-.54 1.03-1.06.88.93 1.78Zm2.51-89.84-3.19-4.22-2.31-1.29.15-1.13-2.84-2.38h-1.66l.44-2.09-2.13-3.67-2.59.92-1.39 1.5L92.94 74h-4.22l.48 1.38-5.36 2.33-.78-.88-.77 1.2-1.71-.32-2.51 3.75.35 3.82 3.6 4.82 2.72-2.56 3.36-.19 1.31-3.09 1.57-.12 2.88 1.61 3.46.34.96-1.53 4.69-.22 2.05-1.1 4.71.34zm5.32 46.17.13-2.72-1.55.62-1.82-1.81.38-2.44.63-2.63-.68-1 .73-1.57 1.42-1.02 3.11-.29 1.94.62 4.31 2.36.97 3.16-.78 1.6.34 2.96-1.71 2.84.64 1.24-6.81 2.44v1.51l-3.36.18-1.55 2.12-3.83 3.54-5.98-1.35-2.68.62-3.39-3.59.25-8.23h5.18l-.12-4.97 1.43 1.02 1.68-.62.25 1.27 3.07.9 1.32-1.28.92 1.57 1.62.76 2.14 2.21 1.8-.02z"/>
    <path d="m128.66 80.95-3.04-3.55-1.83-.69.56-1.35 1.88-.16.62-3.66-2.2-2.27-.48-2.19.53-1.39h-1.65v.88h-1.39l.51.51.29 2.19-2.42 2.51-1.58.06-2.21-1.21-.89.7v.61l-8.11.29-1.22-1.6-2.14.33-.52 1.41-3.05.1-.44 2.09h1.66l2.84 2.38-.15 1.13 2.31 1.29 3.19 4.22 2.11 2.16 1-.54 1.14.13 1.24-.85 1.95 1.84.61 1.1.82.28.26-.74 1.94.23.96.74.35-.83 3.03-.24 1.26-.95 2.81-3.14-.55-1.82z"/>
  </g>
  <g id="Chosen_Location">
    <path id="Selected_Location" fill="#504d50" d="m100.53 47.16-19.68-9.85-2.72.99 1.15 2.79.18 1.82 1.39 1.99-.93 5.51.14 3.71-4.9 5.21.13 2.61 1.52 2.12 1.35.81.99 2.71-.29 1.82 1.8 2.28H77.2l-.24.99 3.31 3.48.31 1.56 1.71.32.77-1.2.78.88 5.36-2.33-.48-1.38h4.22l1.27-2.78 1.39-1.5 2.59-.92.17-.99-1.14-.68-.26-2.4-.93.28-.12-.79.97-1.46-.23-.9 1.95-3.4.11-1.19 1.94.24-.12-10.35z"/>
    <circle id="Highlight_Circle" cx="86.77" cy="55.14" r="27.66" fill="#d8d8d8" opacity=".5"/>
  </g>
</svg>
